HIERARCHY
ROOT joint_Root
{
	OFFSET 0.0 0.0 0.0
	CHANNELS 6 Xposition Yposition Zposition Zrotation Xrotation Yrotation 
	JOINT Hips
	{
		OFFSET -17.1583 93.1646 452.98
		CHANNELS 6 Xposition Yposition Zposition Zrotation Xrotation Yrotation 
		JOINT Spine
		{
			OFFSET 15.7357 0.0 0.0
			CHANNELS 6 Xposition Yposition Zposition Zrotation Xrotation Yrotation 
			JOINT Chest
			{
				OFFSET 8.98455 -0.406207 0.0
				CHANNELS 6 Xposition Yposition Zposition Zrotation Xrotation Yrotation 
				JOINT Neck
				{
					OFFSET 16.3773 0.0 0.0
					CHANNELS 6 Xposition Yposition Zposition Zrotation Xrotation Yrotation 
					JOINT Head
					{
						OFFSET 6.45672 0.0 0.0
						CHANNELS 6 Xposition Yposition Zposition Zrotation Xrotation Yrotation 
						End Site
						{
							OFFSET 0.0 0.0 0.0
						}
					}
				}
				JOINT Shoulder_L
				{
					OFFSET 12.9942 -0.242716 4.98039
					CHANNELS 6 Xposition Yposition Zposition Zrotation Xrotation Yrotation 
					JOINT UpperArm_L
					{
						OFFSET 5.34809 0.0 0.0
						CHANNELS 6 Xposition Yposition Zposition Zrotation Xrotation Yrotation 
						JOINT LowerArm_L
						{
							OFFSET 24.3286 1.87007e-05 0.0
							CHANNELS 6 Xposition Yposition Zposition Zrotation Xrotation Yrotation 
							JOINT Hand_L
							{
								OFFSET 22.2916 0.0 0.0
								CHANNELS 6 Xposition Yposition Zposition Zrotation Xrotation Yrotation 
								End Site
								{
									OFFSET 0.0 0.0 0.0
								}
							}
						}
					}
				}
				JOINT Shoulder_R
				{
					OFFSET 12.9945 -0.242716 -4.98039
					CHANNELS 6 Xposition Yposition Zposition Zrotation Xrotation Yrotation 
					JOINT UpperArm_R
					{
						OFFSET -5.34813 0.0 0.0
						CHANNELS 6 Xposition Yposition Zposition Zrotation Xrotation Yrotation 
						JOINT LowerArm_R
						{
							OFFSET -24.3289 0.000322201 0.0
							CHANNELS 6 Xposition Yposition Zposition Zrotation Xrotation Yrotation 
							JOINT Hand_R
							{
								OFFSET -22.2915 -0.000108084 0.0
								CHANNELS 6 Xposition Yposition Zposition Zrotation Xrotation Yrotation 
								End Site
								{
									OFFSET 0.0 0.0 0.0
								}
							}
						}
					}
				}
			}
		}
		JOINT UpperLeg_L
		{
			OFFSET -2.19248 -6.46944 0.0
			CHANNELS 6 Xposition Yposition Zposition Zrotation Xrotation Yrotation 
			JOINT LowerLeg_L
			{
				OFFSET 39.0811 0.0 -1.23785e-05
				CHANNELS 6 Xposition Yposition Zposition Zrotation Xrotation Yrotation 
				JOINT Foot_L
				{
					OFFSET 40.9854 0.0 -1.26872e-05
					CHANNELS 6 Xposition Yposition Zposition Zrotation Xrotation Yrotation 
					JOINT Toes_L
					{
						OFFSET 11.7543 0.0 0.0
						CHANNELS 6 Xposition Yposition Zposition Zrotation Xrotation Yrotation 
						End Site
						{
							OFFSET 0.0 0.0 0.0
						}
					}
				}
			}
		}
		JOINT UpperLeg_R
		{
			OFFSET -2.19251 6.46944 0.0
			CHANNELS 6 Xposition Yposition Zposition Zrotation Xrotation Yrotation 
			JOINT LowerLeg_R
			{
				OFFSET -39.0811 -0.00228153 -0.0401928
				CHANNELS 6 Xposition Yposition Zposition Zrotation Xrotation Yrotation 
				JOINT Foot_R
				{
					OFFSET -40.9854 0.0 0.0
					CHANNELS 6 Xposition Yposition Zposition Zrotation Xrotation Yrotation 
					JOINT Toes_R
					{
						OFFSET -11.7543 0.0 0.0
						CHANNELS 6 Xposition Yposition Zposition Zrotation Xrotation Yrotation 
						End Site
						{
							OFFSET 0.0 0.0 0.0
						}
					}
				}
			}
		}
	}
}
MOTION
Frames:	6
Frame Time:	0.0333333
0.000000 0.000000 0.000000 0.000000 0.000000 -0.000000 -0.515024 93.257000 -465.133000 82.945600 -4.329060 -22.148700 15.735700 0.000005 -0.000001 46.033800 84.421500 -42.396900 8.984550 -0.406207 -0.000000 0.537708 -7.972420 7.315550 16.377300 -0.000001 -0.000001 -10.327600 7.238080 0.464484 6.456720 -0.000001 -0.000000 -1.225040 14.454400 -7.756060 12.994200 -0.242716 4.980390 -91.395200 5.558790 -75.886600 5.348090 -0.000007 -0.000001 -73.686300 -23.722000 -19.772400 24.328600 0.000019 0.000005 51.981100 -4.211840 -93.285400 22.291600 -0.000001 0.000005 34.940000 4.318210 19.509900 12.994500 -0.242716 -4.980390 91.031400 -4.261770 -76.381600 -5.348130 -0.000001 -0.000004 -60.301300 -16.241800 31.309600 -24.328900 0.000322 -0.000009 2.925950 7.590650 -21.159700 -22.291500 -0.000108 -0.000004 46.684000 5.313800 -0.321730 -2.192480 -6.469440 -0.000000 -177.086000 -5.809060 -1.052640 39.081100 -0.000007 -0.000012 -0.003950 0.021530 10.395200 40.985400 -0.000006 -0.000013 2.953570 7.554330 -48.438700 11.754300 -0.000000 0.000003 -0.079593 -0.390818 -32.800700 -2.192510 6.469440 -0.000001 -176.770000 -11.770900 128.199000 -39.081100 -0.002282 -0.040193 0.015729 -0.010793 49.141700 -40.985400 0.000008 0.000006 -11.564400 -15.801000 -69.357900 -11.754300 -0.000006 -0.000006 -0.002621 0.203901 -8.300090
0.000000 0.000000 0.000000 0.000000 0.000000 -0.000000 -0.556824 94.047800 -458.255000 84.314900 -4.692810 -20.967200 15.735700 0.000005 -0.000001 45.775700 84.228900 -42.632400 8.984550 -0.406207 -0.000000 0.751253 -8.239900 6.344560 16.377300 -0.000001 -0.000001 -10.248200 7.236320 0.230682 6.456720 -0.000001 -0.000000 -1.408420 14.666700 -7.381510 12.994200 -0.242716 4.980390 -91.577500 6.280940 -75.871100 5.348090 -0.000007 -0.000001 -74.591000 -20.214300 -16.115300 24.328600 0.000019 0.000005 50.006000 -0.957930 -90.801900 22.291600 -0.000001 0.000005 34.995200 4.252900 20.513800 12.994500 -0.242716 -4.980390 90.841400 -3.379100 -76.007400 -5.348130 -0.000001 -0.000004 -59.225100 -17.991500 31.836600 -24.328900 0.000322 -0.000009 1.647400 4.444950 -20.366900 -22.291500 -0.000108 -0.000004 48.668700 5.304710 -0.065182 -2.192480 -6.469440 -0.000000 -178.497000 -8.589780 2.495380 39.081100 -0.000007 -0.000012 -0.000053 0.000302 9.785350 40.985400 -0.000006 -0.000013 2.109740 8.861720 -37.940900 11.754300 -0.000000 0.000003 -0.021042 -0.173007 -23.647300 -2.192510 6.469440 -0.000001 -179.495000 -12.488200 133.464000 -39.081100 -0.002282 -0.040193 0.037331 -0.049434 34.549700 -40.985400 0.000008 0.000006 -13.346100 -9.028490 -70.740400 -11.754300 -0.000006 -0.000006 -0.003096 0.209355 -8.078130
0.000000 0.000000 0.000000 0.000000 0.000000 -0.000000 -0.658396 93.554000 -451.239000 85.579300 -4.376820 -19.365300 15.735700 0.000005 -0.000001 46.284800 83.925800 -43.510000 8.984550 -0.406207 -0.000000 1.244510 -8.549720 5.645970 16.377300 -0.000001 -0.000001 -9.891260 7.202520 -0.147862 6.456720 -0.000001 -0.000000 -1.496980 14.619900 -7.438420 12.994200 -0.242716 4.980390 -91.750800 7.013570 -75.946100 5.348090 -0.000007 -0.000001 -75.674200 -16.333200 -12.255900 24.328600 0.000019 0.000005 48.567100 4.086660 -86.401100 22.291600 -0.000001 0.000005 35.927500 4.251280 20.537400 12.994500 -0.242716 -4.980390 90.583000 -2.262780 -75.548000 -5.348130 -0.000001 -0.000004 -59.083700 -19.297500 30.296800 -24.328900 0.000322 -0.000009 0.486800 1.416470 -18.991800 -22.291500 -0.000108 -0.000004 50.841400 5.291690 0.305397 -2.192480 -6.469440 -0.000000 -179.614000 -6.753740 2.932790 39.081100 -0.000007 -0.000012 0.013514 -0.044077 17.046100 40.985400 -0.000006 -0.000013 -0.784567 6.213220 -31.147800 11.754300 -0.000000 0.000003 0.001680 0.036044 -15.114600 -2.192510 6.469440 -0.000001 179.231000 -12.443600 138.194000 -39.081100 -0.002282 -0.040193 0.027493 -0.051028 25.355800 -40.985400 0.000008 0.000006 -13.493900 -9.546820 -73.819800 -11.754300 -0.000006 -0.000006 -0.003307 0.211694 -7.982930
0.000000 0.000000 0.000000 0.000000 0.000000 -0.000000 -0.987159 91.944100 -444.281000 85.966600 -3.065680 -18.286500 15.735700 0.000005 -0.000001 47.466800 83.744200 -44.606600 8.984550 -0.406207 -0.000000 1.695240 -8.605020 5.851150 16.377300 -0.000001 -0.000001 -9.393970 7.029310 -0.686322 6.456720 -0.000001 -0.000000 -1.562800 14.158700 -7.739410 12.994200 -0.242716 4.980390 -91.880700 7.415010 -75.724800 5.348090 -0.000007 -0.000001 -77.206900 -11.486200 -9.573280 24.328600 0.000019 0.000005 48.027500 11.787900 -79.588700 22.291600 -0.000001 0.000005 39.187100 4.268340 20.281400 12.994500 -0.242716 -4.980390 90.330800 -1.255280 -75.229500 -5.348130 -0.000001 -0.000004 -60.626400 -19.341900 26.887100 -24.328900 0.000322 -0.000009 0.109119 0.350539 -17.444700 -22.291500 -0.000108 -0.000004 51.744700 5.309400 -0.193146 -2.192480 -6.469440 -0.000000 179.765000 -1.947570 0.830114 39.081100 -0.000007 -0.000012 0.009780 -0.017634 29.013500 40.985400 -0.000006 -0.000013 -2.670320 3.509160 -29.176500 11.754300 -0.000000 0.000003 0.001623 0.034400 -15.181300 -2.192510 6.469440 -0.000001 -179.204000 -9.531510 140.664000 -39.081100 -0.002282 -0.040193 0.021707 -0.040789 24.272800 -40.985400 0.000008 0.000006 -14.540800 -9.855900 -76.256400 -11.754300 -0.000006 -0.000006 -0.002811 0.206110 -8.210210
0.000000 0.000000 0.000000 0.000000 0.000000 -0.000000 -1.498420 89.419700 -437.547000 84.737200 -2.099490 -17.977600 15.735700 0.000005 -0.000001 52.658600 84.052000 -49.199800 8.984550 -0.406207 -0.000000 1.940460 -7.387000 7.044100 16.377300 -0.000001 -0.000001 -8.683700 6.555990 -0.713681 6.456720 -0.000001 -0.000000 -1.887980 13.268300 -8.421640 12.994200 -0.242716 4.980390 -92.183000 8.402210 -75.379100 5.348090 -0.000007 -0.000001 -77.711500 -6.970140 -7.630860 24.328600 0.000019 0.000005 46.832100 20.851500 -71.538100 22.291600 -0.000001 0.000005 41.109800 4.332120 19.297000 12.994500 -0.242716 -4.980390 89.973600 0.096509 -74.735100 -5.348130 -0.000001 -0.000004 -62.824700 -17.367300 21.595500 -24.328900 0.000322 -0.000009 -0.102430 -0.343231 -16.465100 -22.291500 -0.000108 -0.000004 51.685800 5.336810 -0.983075 -2.192480 -6.469440 -0.000000 -178.401000 -1.580140 -3.916980 39.081100 -0.000007 -0.000012 0.026104 -0.027258 43.757900 40.985400 -0.000006 -0.000013 -4.179440 4.652780 -30.430000 11.754300 -0.000000 0.000003 0.001533 0.031887 -15.283300 -2.192510 6.469440 -0.000001 -174.234000 -5.512110 137.518000 -39.081100 -0.002282 -0.040193 0.168244 -0.227721 35.918800 -40.985400 0.000008 0.000006 -5.476440 -8.976870 -70.234800 -11.754300 -0.000006 -0.000006 -0.006200 0.240306 -6.817110
0.000000 0.000000 0.000000 0.000000 0.000000 -0.000000 -1.953120 86.304900 -430.689000 83.273400 -1.607150 -15.417800 15.735700 0.000005 -0.000001 64.036600 83.596500 -60.193200 8.984550 -0.406207 -0.000000 3.968830 -5.726130 7.882330 16.377300 -0.000001 -0.000001 -8.477160 5.799810 -0.032711 6.456720 -0.000001 -0.000000 -2.394300 12.543600 -8.765670 12.994200 -0.242716 4.980390 -92.488000 9.682850 -75.515400 5.348090 -0.000007 -0.000001 -77.967300 -8.167420 -5.519410 24.328600 0.000019 0.000005 46.569600 29.795500 -64.806600 22.291600 -0.000001 0.000005 43.912100 4.379960 18.541300 12.994500 -0.242716 -4.980390 89.387400 2.168170 -74.221400 -5.348130 -0.000001 -0.000004 -65.238600 -13.081800 14.155100 -24.328900 0.000322 -0.000009 -0.521800 -1.754400 -16.526900 -22.291500 -0.000108 -0.000004 52.766000 5.358810 -1.643610 -2.192480 -6.469440 -0.000000 -175.683000 -2.676570 -8.260020 39.081100 -0.000007 -0.000012 0.170171 -0.097124 60.283600 40.985400 -0.000006 -0.000013 -7.222780 1.907060 -34.141600 11.754300 -0.000000 0.000003 0.001720 0.037258 -15.065400 -2.192510 6.469440 -0.000001 -171.558000 -3.070370 138.169000 -39.081100 -0.002282 -0.040193 0.004869 -0.001403 49.063300 -40.985400 0.000008 0.000006 -6.184860 -5.362300 -78.548700 -11.754300 -0.000006 -0.000006 -0.007651 0.252829 -6.306010
